<svg xmlns="http://www.w3.org/2000/svg" xmlns:svgjs="http://svgjs.com/svgjs" xmlns:xlink="http://www.w3.org/1999/xlink" width="288" height="288"><svg xmlns="http://www.w3.org/2000/svg" width="288" height="288" enable-background="new 0 0 48 48" viewBox="0 0 48 48"><path fill="#385469" d="M13 15c.26 0 .51-.1.71-.29l3-3c.39-.39.39-1.02 0-1.41s-1.02-.39-1.41 0l-3 3c-.39.39-.39 1.02 0 1.41C12.49 14.9 12.74 15 13 15zM14.29 17.71C14.49 17.9 14.74 18 15 18s.51-.1.71-.29l5-5c.39-.39.39-1.02 0-1.41s-1.02-.39-1.41 0l-5 5C13.9 16.68 13.9 17.32 14.29 17.71z" class="color000 svgShape"/><path fill="#385469" d="M40,3H24H8C7.45,3,7,3.45,7,4v20v20c0,0.55,0.45,1,1,1h16h16c0.55,0,1-0.45,1-1V24V4C41,3.45,40.55,3,40,3z M23,43H9V25h14
		V43z M23,23H9V5h14V23z M39,43H25V25h14V43z M39,23H25V5h14V23z" class="color000 svgShape"/><path fill="#385469" d="M29 15c.26 0 .51-.1.71-.29l3-3c.39-.39.39-1.02 0-1.41s-1.02-.39-1.41 0l-3 3c-.39.39-.39 1.02 0 1.41C28.49 14.9 28.74 15 29 15zM30.29 17.71C30.49 17.9 30.74 18 31 18s.51-.1.71-.29l5-5c.39-.39.39-1.02 0-1.41s-1.02-.39-1.41 0l-5 5C29.9 16.68 29.9 17.32 30.29 17.71zM13 35c.26 0 .51-.1.71-.29l3-3c.39-.39.39-1.02 0-1.41s-1.02-.39-1.41 0l-3 3c-.39.39-.39 1.02 0 1.41C12.49 34.9 12.74 35 13 35zM14.29 37.71C14.49 37.9 14.74 38 15 38s.51-.1.71-.29l5-5c.39-.39.39-1.02 0-1.41s-1.02-.39-1.41 0l-5 5C13.9 36.68 13.9 37.32 14.29 37.71zM29 35c.26 0 .51-.1.71-.29l3-3c.39-.39.39-1.02 0-1.41s-1.02-.39-1.41 0l-3 3c-.39.39-.39 1.02 0 1.41C28.49 34.9 28.74 35 29 35zM30.29 37.71C30.49 37.9 30.74 38 31 38s.51-.1.71-.29l5-5c.39-.39.39-1.02 0-1.41s-1.02-.39-1.41 0l-5 5C29.9 36.68 29.9 37.32 30.29 37.71z" class="color000 svgShape"/></svg></svg>