<svg xmlns="http://www.w3.org/2000/svg" width="288" height="288"><svg xmlns="http://www.w3.org/2000/svg" width="288" height="288" viewBox="0 0 100 100"><path fill="#385469" d="M86.5 29H41.7l-4.6-10h.9c1.1 0 2-.9 2-2V7c0-1.1-.9-2-2-2H14c-1.1 0-2 .9-2 2v10c0 1.1.9 2 2 2h.9L5.2 40.2c0 .1 0 .1-.1.2V87c0 1.1.9 2 2 2h34.2c1.9 3.6 5.7 6 10 6h2.1c1.6 0 3.2-.3 4.7-1 1.5.6 3 1 4.7 1h2.1c4.4 0 8.2-2.4 10-6h11.8c1.1 0 2-.9 2-2V45.8c3.7-.9 6.5-4.3 6.5-8.3-.2-4.7-4-8.5-8.7-8.5zM16 9h20v6H16V9zm27 59.6c-1.9 2-3 4.6-3 7.4v9H9V52.3l5-2.4.2-.1c2.3-1.1 4.8-1.5 7.3-1.1 1.3.2 2.5.5 3.7 1.1 4.6 2.2 9.8 2.2 14.4 0l3.5-1.7v20.5zm0-24.9-5 2.4-.2.1c-2.3 1.1-4.8 1.5-7.3 1.1-1.3-.2-2.5-.5-3.7-1.1-4.6-2.2-9.8-2.2-14.4 0L9 47.8v-6.4l.2-.4 10.1-22h13.4l10.1 22 .2.4v2.3zM72 84c0 3.9-3.3 7-7.3 7h-2.1c-1.3 0-2.6-.3-3.7-1-.3-.2-.6-.2-1-.2s-.7.1-1 .2c-1.1.6-2.4 1-3.7 1h-2.1c-4 0-7.3-3.1-7.3-7v-8c0-3.9 3.3-7 7.3-7h2.1c.9 0 1.8.2 2.7.5V72c0 1.1.9 2 2 2s2-.9 2-2v-2.5c.8-.3 1.7-.5 2.7-.5h2.1c4 0 7.3 3.1 7.3 7v8zm14.5-42c-1.1 0-2 .9-2 2v41H76v-9c0-6.1-5.1-11-11.3-11h-2.1c-.9 0-1.8.1-2.7.3V63c0-2.2 1.8-4 4-4 1.1 0 2-.9 2-2s-.9-2-2-2c-4.4 0-8 3.6-8 8v2.3c-.9-.2-1.8-.3-2.7-.3h-2.1c-1.5 0-3 .3-4.3.8V40.4c0-.1 0-.1-.1-.2L43.5 33h43c2.5 0 4.5 2 4.5 4.5S89 42 86.5 42zM26 57c-5 0-9 4-9 9s4 9 9 9 9-4 9-9-4-9-9-9zm0 14c-2.8 0-5-2.2-5-5s2.2-5 5-5 5 2.2 5 5-2.2 5-5 5z" class="color000 svgShape"/></svg></svg>