<svg xmlns="http://www.w3.org/2000/svg" width="288" height="288"><svg xmlns="http://www.w3.org/2000/svg" width="288" height="288" viewBox="0 0 512 512"><path fill="#385469" d="M477.6 256c-.1 45.9-14.3 90.7-40.8 128.2-25.6 36.3-62.7 64.7-104.5 79.9-43.7 15.9-92 17.8-136.8 5.1-43.3-12.2-82.1-37.9-110.8-72.5C56 362.1 38.4 318.3 35 273.5c-3.5-46.1 7.3-92.4 31.2-132 23.2-38.4 57.9-69 98.6-87.6 41.9-19.1 90.1-24.4 135.2-15.2 44.1 9 84.7 31.4 115.9 63.8 31.4 32.7 52.1 74.7 59.2 119.5 1.8 11.3 2.5 22.6 2.5 34 0 9.7 15 9.7 15 0-.1-48.8-15.2-97.1-43.6-136.9-27.9-39-67-69-112-85.5-46.3-17-98-18.8-145.4-5.4-45.9 13-87.6 40.1-117.9 76.9-31 37.7-49.8 84-53.7 132.7-3.8 48.7 7.9 98.4 33.2 140.2 24.5 40.6 61.4 73.7 104.6 93.3 45.4 20.6 96.6 26.4 145.5 16.5 46.9-9.4 90.6-33.7 123.6-68.3 33-34.6 55.4-79 62.7-126.3 1.9-12.3 2.9-24.8 3-37.3.1-9.6-14.9-9.6-15 .1z" class="color000 svgShape"/><path fill="#385469" d="M429.7 403.3c-33.3-20.9-50.5-60-56.4-97.6-7.1-45 1.4-93.5 23.2-133.5 10.8-19.8 25.1-38 43.3-51.5 3.3-2.4 4.9-6.5 2.7-10.3-1.8-3.2-7-5.1-10.3-2.7-37.5 27.8-60.9 71.3-70.7 116.3-10.2 47-7 98.5 15.4 141.6 10.5 20.3 25.7 38.3 45.2 50.5 8.2 5.2 15.8-7.7 7.6-12.8zM118.9 81.1c30.2-4.8 58.7 8.2 78.6 30.6 20 22.6 30.8 52.8 34.7 82.4 8.5 63.9-12.8 139.8-65.7 180.1-25.7 19.6-58 27.5-88.9 15.8-9-3.4-12.9 11.1-4 14.5 30.5 11.6 64.1 6.1 91.4-11 28.8-18.1 50.2-46.6 63.8-77.4 28.7-64.9 29.7-150.7-15.6-208.7-23.8-30.4-59.7-46.8-98.3-40.7-4 .6-6.2 5.6-5.2 9.2 1.1 4.3 5.1 5.9 9.2 5.2zm177.7 399.6c-15.4-113.4-6.9-229.2 28.3-338.2 9.9-30.7 21.9-60.7 35.6-89.9 4.1-8.7-8.8-16.3-13-7.6-49.9 106.2-75.3 222.1-73.3 339.5.6 33.5 3.4 66.9 7.9 100.1.5 4 5.7 6.2 9.2 5.2 4.4-1.1 5.9-5 5.3-9.1z" class="color000 svgShape"/><path fill="#385469" d="M483.1 301.2c-111-50.6-235.1-69.2-356.4-65.6-17.4.5-34.8 1.5-52.2 3-16.4 1.4-33.5 2.3-49.6 5.6-9.5 1.9-5.5 16.4 4 14.5 14.2-2.8 29.3-3.6 43.7-4.8 14.8-1.3 29.6-2.2 44.4-2.8 29.9-1.2 59.9-1 89.7.7 59.7 3.3 119.2 12.6 176.7 29 31.4 8.9 62.3 20 92 33.6 3.7 1.7 8 1 10.3-2.7 2-3.4 1.1-8.8-2.6-10.5z" class="color000 svgShape"/></svg></svg>