<svg xmlns="http://www.w3.org/2000/svg" width="288" height="288"><svg xmlns="http://www.w3.org/2000/svg" width="288" height="288" viewBox="0 0 64 64"><path fill="none" stroke="#385469" stroke-linecap="round" stroke-linejoin="round" stroke-miterlimit="10" stroke-width="2" class="colorStroke231f20 svgStroke" d="M47.09 61.09h0m-3.75 0H8.26c-1.76 0-3.18-1.42-3.18-3.18v-3.12c0-1.76 1.42-3.18 3.18-3.18h47.47c1.76 0 3.18 1.42 3.18 3.18v3.12c0 1.76-1.42 3.18-3.18 3.18h-4.15m.52-9.48H11.9c-1.76 0-3.18-1.42-3.18-3.18v-3.12c0-1.76 1.42-3.18 3.18-3.18h40.2c1.76 0 3.18 1.42 3.18 3.18v3.12c0 1.75-1.42 3.18-3.18 3.18zm-3.7-9.49H15.6c-1.76 0-3.18-1.42-3.18-3.18v-3.12c0-1.76 1.42-3.18 3.18-3.18h32.8c1.76 0 3.18 1.42 3.18 3.18v3.12a3.169 3.169 0 0 1-3.18 3.18zm-3.21-9.48H18.81c-1.76 0-3.18-1.42-3.18-3.18v-3.12c0-1.76 1.42-3.18 3.18-3.18h26.38c1.76 0 3.18 1.42 3.18 3.18v3.12c0 1.76-1.42 3.18-3.18 3.18zm-3.46-9.48H22.27c-1.76 0-3.18-1.42-3.18-3.18v-3.12c0-1.76 1.42-3.18 3.18-3.18h19.47c1.76 0 3.18 1.42 3.18 3.18v3.12c0 1.76-1.43 3.18-3.19 3.18zm-6.68-17.2a3.05 3.05 0 1 1-6.1 0 3.05 3.05 0 1 1 6.1 0zM32 9.02v4.66"/><path fill="none" stroke="#385469" stroke-linecap="round" stroke-linejoin="round" stroke-miterlimit="10" stroke-width="1.5" d="M23.62 16.3h-.75a.96.96 0 0 0-.96.96v1.15m-1.97 7.38h-.75a.96.96 0 0 0-.96.96v1.15m-.89 7.96h-.75a.96.96 0 0 0-.96.96v1.15m-2.36 7.26h-.75a.96.96 0 0 0-.96.96v1.15m-1.99 6.89h-.75a.96.96 0 0 0-.96.96v1.15" class="colorStroke231f20 svgStroke"/></svg></svg>