<svg xmlns="http://www.w3.org/2000/svg" viewBox="0 0 2400 800"><path d="M-.3 373.674c40.545 8.75 115.609 49.708 194.615 42 79.007-7.709 107.693-73.792 184.616-79 76.923-5.209 107.692 49.833 184.615 54 76.923 4.166 107.692-36.5 184.615-34 76.923 2.5 107.693 49.958 184.616 46 76.923-3.959 107.692-66.25 184.615-65 76.923 1.25 107.692 65.375 184.616 71 76.923 5.625 107.692-45.667 184.615-44 76.923 1.666 107.692 50.541 184.615 52 76.923 1.458 107.693-48.75 184.616-45 76.923 3.75 107.692 65.5 184.615 63 76.923-2.5 107.692-74.167 184.615-75 76.924-.834 94.071-13.167 184.616 71 90.545 84.166 854.166 159.458 250 333-604.167 173.541-2493.75 395.833-3150 500" opacity="NaN" fill="hsl(189,28%,95%)"/></svg>