<svg width="1882" height="722" viewBox="0 0 1882 722" fill="none" xmlns="http://www.w3.org/2000/svg">
<rect width="1882" height="722" fill="url(#paint0_linear_15_176)"/>
<path d="M436.925 576.527C439.626 573.583 442.227 570.141 444.316 566.667C446.782 562.572 449.912 554.701 451.062 549.821C452.291 544.534 452.823 536.516 452.305 531.114C451.848 526.334 449.766 518.04 448.028 513.898C442.176 500.191 431.275 489.065 417.712 483.028C405.78 477.692 391.685 476.575 378.916 479.959C369.878 482.354 364.13 485.352 356.59 491.614C352.216 495.3 350.976 496.481 348.53 499.492C332.709 518.908 330.903 546.095 344.017 567.435C347.461 573.085 353.963 580.124 359.134 583.874C368.691 590.755 378.192 594.2 389.962 594.982C407.948 596.23 424.857 589.559 436.925 576.527ZM420.101 582.686C394.483 596.884 362.765 588.299 348.143 563.246C342.861 554.171 340.449 543.842 341.187 533.128C343.156 503.086 369.246 481.022 399.246 483.997C409.014 484.981 418.044 488.55 426.433 494.758C430.025 497.422 437.465 505.868 439.656 509.807C450.819 529.802 448.797 553.259 434.414 570.836C431.743 574.091 423.933 580.542 420.101 582.686Z" fill="#DC5D90"/>
<path d="M418.536 563.096C425.698 554.746 429.591 544.706 428.997 536.175C428.753 532.855 427.669 528.189 426.74 526.63C425.582 524.643 422.032 525.232 421.649 527.505C421.598 527.889 421.917 529.691 422.417 531.478C424.964 540.913 421.321 551.847 412.609 561.024C410.416 563.33 410.187 563.677 410.185 564.89C410.219 565.924 410.423 566.377 411.108 566.938C413.022 568.407 414.735 567.49 418.536 563.096Z" fill="#DC5D90"/>
<path d="M313.347 529.859C320.132 521.74 322.555 510.907 319.846 500.789C318.375 495.349 316.859 492.512 312.974 488.073C309.088 483.634 306.476 481.757 301.278 479.579C294.672 476.843 287.762 476.358 280.824 478.221C275.384 479.691 272.546 481.207 268.107 485.093C263.668 488.979 261.791 491.59 259.614 496.788C255.992 505.478 256.343 514.947 260.574 523.54C262.435 527.381 267.305 532.944 270.89 535.324C276.447 539.074 283.944 541.225 290.365 540.927C294.457 540.735 300.024 539.297 303.552 537.468C306.674 535.894 311.302 532.278 313.347 529.859ZM301.211 532.254C296.799 534.569 292.797 535.361 287.323 535.022C281.851 534.632 277.989 533.318 273.922 530.44C268.818 526.823 265.549 522.038 263.752 515.673C262.854 512.49 262.751 511.322 263.045 507.288C263.28 503.742 263.66 501.91 264.59 499.545C267.782 491.523 274.523 485.622 282.897 483.519C287.385 482.397 294.142 482.872 298.52 484.557C303.097 486.358 306.418 488.825 309.537 492.774C313.966 498.385 315.514 503.417 315.054 510.743C314.796 514.598 314.497 516.024 313.39 518.685C310.871 524.766 306.776 529.32 301.211 532.254Z" fill="#DC5D90"/>
<path d="M115.535 496.461C111.565 496.897 107.34 497.773 103.48 499.011C98.9275 500.469 91.3871 504.329 87.3079 507.244C82.9011 510.412 77.2191 516.094 74.0507 520.501C71.2465 524.398 67.3494 532.01 65.9289 536.271C61.3031 550.439 62.1771 565.991 68.4055 579.467C73.8685 591.341 83.7383 601.466 95.575 607.33C103.952 611.481 110.253 613.012 120.051 613.266C125.769 613.375 127.481 613.303 131.304 612.648C155.997 608.46 175.264 589.193 179.453 564.499C180.583 557.98 180.327 548.401 178.907 542.172C176.248 530.7 171.368 521.849 163.028 513.509C150.317 500.723 133.199 494.605 115.535 496.461ZM132.252 502.908C160.878 509.1 179.089 536.452 173.589 564.933C171.585 575.241 166.597 584.601 158.985 592.176C137.715 613.483 103.551 612.9 82.9379 590.901C76.2366 583.727 71.793 575.094 69.5703 564.896C68.6227 560.526 68.5877 549.271 69.5335 544.864C74.3046 522.466 91.2767 506.149 113.677 502.397C117.83 501.707 127.955 501.998 132.252 502.908Z" fill="#DC5D90"/>
<path d="M120.525 518.679C109.636 520.245 100.094 525.235 94.9218 532.045C92.918 534.704 90.6604 538.928 90.3328 540.713C89.8949 542.971 92.9548 544.866 94.7396 543.409C95.0304 543.153 95.978 541.587 96.7784 539.913C101.077 531.136 111.02 525.309 123.62 524.142C126.789 523.851 127.19 523.741 127.99 522.83C128.645 522.03 128.791 521.555 128.645 520.681C128.172 518.315 126.279 517.877 120.525 518.679Z" fill="#DC5D90"/>
<path d="M177.779 612.974C167.326 614.613 158.367 621.169 153.741 630.566C151.264 635.628 150.536 638.761 150.536 644.66C150.536 650.559 151.264 653.693 153.741 658.755C156.91 665.165 161.789 670.082 168.237 673.25C173.298 675.727 176.432 676.456 182.331 676.456C188.232 676.456 191.364 675.727 196.425 673.25C204.875 669.097 210.847 661.741 213.324 652.49C214.454 648.373 214.454 640.98 213.324 636.827C211.613 630.345 207.388 623.789 202.361 619.784C199.156 617.233 194.02 614.648 190.16 613.701C186.775 612.828 180.91 612.501 177.779 612.974ZM188.488 619.165C193.332 620.33 196.865 622.371 200.76 626.231C204.621 630.128 206.661 633.661 207.826 638.506C209.283 644.589 208.591 650.342 205.75 656.315C204.33 659.301 203.638 660.249 200.76 663.09C198.247 665.603 196.755 666.731 194.497 667.898C186.811 671.832 177.852 671.832 170.167 667.898C166.051 665.785 161.28 660.977 159.095 656.826C156.838 652.456 155.964 648.412 156.218 643.387C156.582 636.248 158.731 631.442 163.903 626.233C166.636 623.502 167.8 622.626 170.386 621.353C176.287 618.437 182.368 617.708 188.488 619.165Z" fill="#DC5D90"/>
<path d="M1430.49 576.822C1427.79 573.879 1425.18 570.437 1423.09 566.963C1420.63 562.868 1417.49 554.996 1416.34 550.116C1415.11 544.83 1414.58 536.812 1415.1 531.409C1415.56 526.63 1417.64 518.335 1419.38 514.193C1425.23 500.486 1436.14 489.36 1449.71 483.323C1461.65 477.988 1475.75 476.87 1488.52 480.255C1497.57 482.649 1503.32 485.647 1510.86 491.91C1515.24 495.595 1516.48 496.776 1518.92 499.788C1534.75 519.203 1536.56 546.391 1523.44 567.731C1519.99 573.38 1513.49 580.419 1508.31 584.17C1498.75 591.051 1489.25 594.496 1477.47 595.278C1459.48 596.526 1442.56 589.854 1430.49 576.822ZM1447.32 582.982C1472.95 597.179 1504.68 588.594 1519.31 563.542C1524.6 554.466 1527.01 544.138 1526.27 533.424C1524.3 503.382 1498.2 481.318 1468.18 484.292C1458.41 485.276 1449.38 488.845 1440.98 495.054C1437.39 497.718 1429.95 506.164 1427.76 510.102C1416.59 530.098 1418.61 553.554 1433 571.132C1435.67 574.387 1443.49 580.837 1447.32 582.982Z" fill="#BF62D3"/>
<path d="M1448.89 563.392C1441.72 555.041 1437.83 545.001 1438.42 536.471C1438.66 533.15 1439.75 528.484 1440.68 526.926C1441.84 524.939 1445.39 525.528 1445.77 527.8C1445.82 528.184 1445.5 529.987 1445 531.774C1442.45 541.209 1446.1 552.143 1454.81 561.32C1457.01 563.626 1457.24 563.973 1457.24 565.186C1457.21 566.219 1457 566.672 1456.32 567.234C1454.4 568.703 1452.69 567.785 1448.89 563.392Z" fill="#BF62D3"/>
<path d="M1554.12 530.155C1547.33 522.036 1544.91 511.202 1547.62 501.085C1549.09 495.645 1550.61 492.807 1554.5 488.369C1558.38 483.93 1561 482.052 1566.2 479.875C1572.81 477.139 1579.72 476.654 1586.66 478.516C1592.1 479.987 1594.94 481.503 1599.38 485.388C1603.83 489.275 1605.7 491.886 1607.88 497.084C1611.5 505.774 1611.15 515.243 1606.92 523.835C1605.06 527.677 1600.19 533.239 1596.6 535.62C1591.04 539.37 1583.54 541.52 1577.12 541.223C1573.02 541.031 1567.45 539.593 1563.92 537.763C1560.8 536.19 1556.17 532.573 1554.12 530.155ZM1566.26 532.55C1570.68 534.865 1574.68 535.656 1580.16 535.317C1585.63 534.928 1589.5 533.614 1593.57 530.736C1598.67 527.119 1601.94 522.334 1603.74 515.969C1604.64 512.786 1604.74 511.617 1604.45 507.584C1604.21 504.037 1603.83 502.206 1602.9 499.841C1599.71 491.819 1592.97 485.917 1584.59 483.815C1580.1 482.693 1573.34 483.168 1568.96 484.853C1564.38 486.654 1561.05 489.121 1557.93 493.069C1553.5 498.681 1551.95 503.713 1552.42 511.039C1552.67 514.893 1552.97 516.319 1554.08 518.98C1556.6 525.062 1560.7 529.615 1566.26 532.55Z" fill="#BF62D3"/>
<path d="M1752.03 496.757C1756 497.193 1760.23 498.069 1764.09 499.307C1768.64 500.764 1776.19 504.625 1780.27 507.539C1784.68 510.708 1790.36 516.39 1793.53 520.796C1796.34 524.694 1800.24 532.306 1801.66 536.567C1806.28 550.735 1805.41 566.287 1799.18 579.763C1793.71 591.636 1783.84 601.762 1772 607.626C1763.62 611.777 1757.31 613.308 1747.51 613.562C1741.79 613.67 1740.08 613.599 1736.25 612.944C1711.55 608.756 1692.27 589.489 1688.08 564.794C1686.95 558.275 1687.2 548.696 1688.63 542.468C1691.29 530.996 1696.17 522.145 1704.51 513.804C1717.23 501.018 1734.35 494.9 1752.03 496.757ZM1735.3 503.204C1706.66 509.396 1688.44 536.747 1693.95 565.229C1695.95 575.536 1700.94 584.896 1708.56 592.472C1729.84 613.779 1764.02 613.196 1784.64 591.197C1791.34 584.022 1795.79 575.389 1798.01 565.192C1798.96 560.822 1799 549.567 1798.05 545.16C1793.28 522.762 1776.3 506.444 1753.89 502.693C1749.73 502.003 1739.6 502.293 1735.3 503.204Z" fill="#BF62D3"/>
<path d="M1747.03 518.975C1757.93 520.541 1767.48 525.531 1772.65 532.341C1774.65 534.999 1776.91 539.224 1777.24 541.009C1777.68 543.267 1774.62 545.162 1772.83 543.704C1772.54 543.449 1771.59 541.883 1770.79 540.208C1766.49 531.432 1756.54 525.604 1743.94 524.438C1740.77 524.147 1740.37 524.037 1739.57 523.126C1738.91 522.325 1738.77 521.851 1738.91 520.977C1739.38 518.611 1741.28 518.173 1747.03 518.975Z" fill="#BF62D3"/>
<path d="M1689.75 613.269C1700.21 614.909 1709.18 621.465 1713.8 630.862C1716.28 635.923 1717.01 639.057 1717.01 644.956C1717.01 650.855 1716.28 653.989 1713.8 659.05C1710.63 665.461 1705.75 670.377 1699.3 673.546C1694.24 676.023 1691.1 676.751 1685.2 676.751C1679.3 676.751 1676.16 676.023 1671.1 673.546C1662.65 669.393 1656.67 662.037 1654.19 652.785C1653.06 648.669 1653.06 641.276 1654.19 637.123C1655.9 630.641 1660.13 624.085 1665.16 620.079C1668.37 617.529 1673.51 614.944 1677.37 613.996C1680.75 613.124 1686.62 612.796 1689.75 613.269ZM1679.04 619.461C1674.19 620.626 1670.66 622.666 1666.76 626.527C1662.9 630.424 1660.86 633.956 1659.69 638.801C1658.24 644.884 1658.93 650.638 1661.77 656.611C1663.19 659.597 1663.88 660.545 1666.76 663.385C1669.28 665.899 1670.77 667.027 1673.03 668.193C1680.72 672.127 1689.68 672.127 1697.37 668.193C1701.49 666.081 1706.26 661.273 1708.45 657.122C1710.71 652.752 1711.58 648.708 1711.33 643.683C1710.96 636.544 1708.81 631.737 1703.64 626.528C1700.9 623.798 1699.74 622.922 1697.15 621.649C1691.25 618.732 1685.16 618.004 1679.04 619.461Z" fill="#BF62D3"/>
<path d="M99.5406 296.515C97.981 300.193 96.6809 304.307 95.8752 308.28C94.9225 312.964 94.6063 321.429 95.1561 326.412C95.7675 331.805 97.9487 339.539 100.246 344.457C102.276 348.807 107.013 355.927 110.037 359.249C120.139 370.207 134.135 377.043 148.936 378.194C161.965 379.229 175.622 375.565 186.522 368.102C194.237 362.821 198.651 358.072 203.66 349.647C206.549 344.711 207.322 343.183 208.619 339.527C217.03 315.936 209.634 289.712 190.135 273.99C184.999 269.819 176.516 265.362 170.387 263.558C159.079 260.273 148.972 260.206 137.62 263.408C120.253 268.25 106.552 280.196 99.5406 296.515ZM113.334 285.08C132.723 263.129 165.485 260.604 187.648 279.319C195.663 286.104 201.392 295.029 204.282 305.372C212.48 334.342 195.279 363.864 166.012 371.101C156.479 373.442 146.775 373.101 136.792 370.058C132.516 368.749 122.678 363.281 119.296 360.302C102.084 345.195 96.1401 322.414 103.812 301.037C105.239 297.076 110.44 288.384 113.334 285.08Z" fill="#DC5D90"/>
<path d="M121.364 303.017C117.41 313.283 117.101 324.047 120.516 331.887C121.856 334.934 124.439 338.968 125.837 340.126C127.592 341.612 130.741 339.868 130.342 337.598C130.261 337.22 129.357 335.628 128.288 334.111C122.73 326.073 122.504 314.55 127.643 302.986C128.937 300.08 129.037 299.676 128.633 298.532C128.255 297.57 127.912 297.211 127.078 296.911C124.783 296.167 123.475 297.605 121.364 303.017Z" fill="#DC5D90"/>
<path d="M231.611 299.136C227.934 309.058 229.276 320.078 235.215 328.705C238.421 333.339 240.799 335.506 245.946 338.388C251.093 341.271 254.183 342.166 259.81 342.478C266.951 342.846 273.625 340.991 279.54 336.914C284.174 333.707 286.341 331.329 289.223 326.182C292.106 321.034 293.001 317.945 293.313 312.319C293.818 302.918 290.318 294.112 283.456 287.431C280.417 284.434 273.966 280.822 269.791 279.778C263.299 278.104 255.515 278.587 249.564 281.016C245.772 282.566 241.008 285.784 238.295 288.689C235.879 291.217 232.728 296.173 231.611 299.136ZM242.245 292.818C245.629 289.16 249.135 287.075 254.407 285.562C259.693 284.099 263.773 284.044 268.569 285.395C274.588 287.096 279.27 290.511 283.093 295.908C285.005 298.606 285.494 299.673 286.566 303.572C287.531 306.993 287.786 308.846 287.701 311.386C287.378 320.014 283.001 327.831 275.813 332.614C271.959 335.174 265.433 336.987 260.744 336.865C255.828 336.699 251.872 335.486 247.612 332.809C241.561 329.003 238.417 324.779 236.4 317.721C235.352 314.003 235.157 312.559 235.31 309.681C235.648 303.108 237.984 297.446 242.245 292.818Z" fill="#DC5D90"/>
<path d="M1768.03 296.811C1769.59 300.488 1770.89 304.602 1771.7 308.576C1772.65 313.259 1772.97 321.725 1772.42 326.708C1771.8 332.101 1769.62 339.835 1767.32 344.752C1765.29 349.103 1760.55 356.223 1757.53 359.544C1747.42 370.503 1733.42 377.339 1718.61 378.489C1705.58 379.524 1691.91 375.86 1681.01 368.398C1673.29 363.117 1668.87 358.368 1663.86 349.943C1660.97 345.007 1660.2 343.478 1658.9 339.822C1650.48 316.232 1657.88 290.008 1677.39 274.286C1682.53 270.115 1691.02 265.658 1697.15 263.854C1708.46 260.568 1718.57 260.501 1729.93 263.703C1747.31 268.546 1761.01 280.492 1768.03 296.811ZM1754.23 285.376C1734.83 263.424 1702.05 260.9 1679.88 279.615C1671.86 286.399 1666.13 295.325 1663.24 305.668C1655.04 334.637 1672.25 364.16 1701.53 371.396C1711.06 373.738 1720.77 373.397 1730.76 370.354C1735.04 369.045 1744.88 363.576 1748.26 360.598C1765.48 345.491 1771.43 322.71 1763.76 301.333C1762.33 297.372 1757.12 288.68 1754.23 285.376Z" fill="#BF62D3"/>
<path d="M1746.2 303.313C1750.15 313.579 1750.46 324.343 1747.04 332.183C1745.7 335.23 1743.12 339.264 1741.72 340.422C1739.96 341.907 1736.81 340.163 1737.21 337.894C1737.29 337.515 1738.2 335.924 1739.27 334.407C1744.83 326.368 1745.06 314.846 1739.91 303.282C1738.62 300.375 1738.52 299.971 1738.92 298.828C1739.3 297.865 1739.64 297.507 1740.48 297.206C1742.78 296.463 1744.08 297.901 1746.2 303.313Z" fill="#BF62D3"/>
<path d="M1635.9 299.432C1639.58 309.353 1638.23 320.373 1632.29 329.001C1629.08 333.635 1626.7 335.802 1621.56 338.684C1616.41 341.566 1613.31 342.462 1607.69 342.774C1600.54 343.142 1593.86 341.287 1587.95 337.209C1583.31 334.003 1581.14 331.625 1578.26 326.478C1575.37 321.33 1574.48 318.241 1574.17 312.615C1573.66 303.213 1577.16 294.408 1584.03 287.727C1587.07 284.73 1593.52 281.117 1597.7 280.074C1604.19 278.4 1611.98 278.882 1617.94 281.311C1621.73 282.862 1626.5 286.079 1629.21 288.984C1631.63 291.512 1634.78 296.469 1635.9 299.432ZM1625.26 293.114C1621.87 289.456 1618.36 287.371 1613.09 285.858C1607.8 284.394 1603.72 284.34 1598.92 285.691C1592.9 287.392 1588.22 290.807 1584.39 296.204C1582.48 298.902 1581.99 299.969 1580.92 303.868C1579.95 307.289 1579.7 309.142 1579.78 311.682C1580.1 320.31 1584.48 328.126 1591.67 332.91C1595.53 335.469 1602.06 337.283 1606.75 337.16C1611.67 336.995 1615.63 335.781 1619.89 333.104C1625.94 329.298 1629.09 325.075 1631.11 318.017C1632.15 314.299 1632.35 312.855 1632.2 309.977C1631.86 303.403 1629.52 297.741 1625.26 293.114Z" fill="#BF62D3"/>
<path d="M406.36 92.6475C402.435 91.9055 398.139 91.51 394.085 91.5675C389.306 91.6325 380.967 93.1236 376.215 94.7205C371.075 96.4646 363.982 100.24 359.665 103.53C355.846 106.439 349.896 112.582 347.294 116.243C338.734 128.444 335.03 143.574 337.053 158.281C338.812 171.232 345.297 183.798 354.906 192.861C361.707 199.277 367.286 202.58 376.583 205.683C382.021 207.457 383.679 207.887 387.527 208.377C412.367 211.58 436.418 198.776 447.634 176.38C450.617 170.474 453.169 161.238 453.628 154.866C454.434 143.117 452.351 133.228 446.808 122.816C438.383 106.876 423.797 96.028 406.36 92.6475ZM420.467 103.694C446.039 117.972 455.473 149.448 441.898 175.083C436.973 184.357 429.47 191.854 419.978 196.877C393.414 211.047 360.909 200.517 347.615 173.459C343.3 164.641 341.57 155.087 342.421 144.685C342.79 140.228 346.042 129.453 348.233 125.514C359.334 105.484 380.33 94.8319 402.85 97.7823C407.024 98.3346 416.623 101.568 420.467 103.694Z" fill="#DC5D90"/>
<path d="M404.647 115.354C393.776 113.673 383.192 115.661 376.257 120.664C373.565 122.622 370.172 126.004 369.338 127.615C368.26 129.647 370.634 132.353 372.766 131.48C373.119 131.32 374.482 130.099 375.736 128.731C382.41 121.591 393.621 118.92 406.013 121.483C409.128 122.13 409.544 122.141 410.576 121.504C411.436 120.929 411.713 120.518 411.829 119.639C412.068 117.238 410.385 116.266 404.647 115.354Z" fill="#DC5D90"/>
<path d="M431.882 222.255C421.406 220.771 410.923 224.427 403.756 232.064C399.91 236.182 398.298 238.967 396.576 244.609C394.854 250.251 394.636 253.461 395.528 259.025C396.687 266.081 399.919 272.208 405.161 277.121C409.279 280.967 412.063 282.579 417.705 284.3C423.349 286.023 426.557 286.24 432.122 285.349C441.415 283.843 449.275 278.551 454.344 270.425C456.626 266.818 458.785 259.747 458.916 255.445C459.172 248.746 457.045 241.242 453.406 235.944C451.085 232.569 446.928 228.597 443.512 226.564C440.529 224.742 435.016 222.717 431.882 222.255ZM440.317 231.303C444.611 233.831 447.394 236.814 449.993 241.643C452.548 246.497 453.468 250.472 453.168 255.445C452.786 261.689 450.445 266.99 445.984 271.873C443.754 274.315 442.816 275.019 439.234 276.897C436.096 278.567 434.34 279.21 431.84 279.667C423.34 281.186 414.772 278.571 408.569 272.565C405.249 269.343 402.089 263.351 401.212 258.744C400.328 253.905 400.673 249.782 402.382 245.05C404.815 238.328 408.273 234.358 414.741 230.886C418.151 229.072 419.521 228.574 422.365 228.111C428.86 227.044 434.889 228.122 440.317 231.303Z" fill="#DC5D90"/>
<path d="M1461.07 92.9429C1464.99 92.2009 1469.29 91.8054 1473.35 91.8629C1478.13 91.9279 1486.47 93.419 1491.23 95.0159C1496.37 96.76 1503.46 100.536 1507.78 103.826C1511.6 106.735 1517.56 112.878 1520.16 116.539C1528.72 128.74 1532.43 143.869 1530.41 158.576C1528.65 171.527 1522.16 184.093 1512.54 193.157C1505.74 199.573 1500.16 202.876 1490.86 205.979C1485.42 207.752 1483.76 208.183 1479.91 208.672C1455.06 211.875 1430.99 199.071 1419.77 176.675C1416.79 170.77 1414.24 161.533 1413.78 155.162C1412.97 143.413 1415.05 133.523 1420.6 123.111C1429.03 107.172 1443.62 96.3234 1461.07 92.9429ZM1446.95 103.989C1421.37 118.267 1411.93 149.743 1425.51 175.379C1430.44 184.653 1437.95 192.149 1447.44 197.172C1474.02 211.343 1506.54 200.812 1519.84 173.754C1524.16 164.936 1525.89 155.382 1525.04 144.98C1524.67 140.524 1521.41 129.748 1519.22 125.81C1508.11 105.78 1487.11 95.1273 1464.58 98.0777C1460.4 98.63 1450.8 101.864 1446.95 103.989Z" fill="#BF62D3"/>
<path d="M1462.78 115.65C1473.66 113.969 1484.25 115.956 1491.18 120.96C1493.88 122.918 1497.27 126.299 1498.11 127.911C1499.18 129.942 1496.81 132.648 1494.68 131.775C1494.32 131.616 1492.96 130.395 1491.7 129.027C1485.03 121.887 1473.81 119.216 1461.41 121.778C1458.3 122.425 1457.88 122.437 1456.85 121.799C1455.99 121.225 1455.71 120.813 1455.59 119.935C1455.36 117.534 1457.04 116.562 1462.78 115.65Z" fill="#BF62D3"/>
<path d="M1435.53 222.55C1446.01 221.067 1456.5 224.722 1463.67 232.359C1467.52 236.478 1469.13 239.262 1470.85 244.904C1472.58 250.546 1472.8 253.756 1471.9 259.32C1470.74 266.377 1467.51 272.503 1462.27 277.416C1458.15 281.262 1455.36 282.874 1449.72 284.596C1444.07 286.318 1440.86 286.536 1435.29 285.644C1425.99 284.139 1418.13 278.846 1413.06 270.721C1410.78 267.114 1408.62 260.043 1408.49 255.741C1408.23 249.041 1410.36 241.538 1414 236.239C1416.32 232.864 1420.48 228.893 1423.9 226.859C1426.88 225.037 1432.4 223.012 1435.53 222.55ZM1427.09 231.598C1422.8 234.126 1420.01 237.109 1417.41 241.938C1414.86 246.793 1413.94 250.767 1414.24 255.741C1414.62 261.984 1416.96 267.286 1421.42 272.169C1423.66 274.61 1424.59 275.315 1428.18 277.192C1431.32 278.862 1433.07 279.505 1435.57 279.962C1444.08 281.481 1452.65 278.866 1458.86 272.86C1462.18 269.638 1465.34 263.647 1466.22 259.039C1467.1 254.2 1466.76 250.077 1465.05 245.345C1462.61 238.623 1459.15 234.654 1452.68 231.181C1449.27 229.367 1447.9 228.87 1445.05 228.406C1438.56 227.34 1432.52 228.418 1427.09 231.598Z" fill="#BF62D3"/>
<defs>
<linearGradient id="paint0_linear_15_176" x1="13" y1="381" x2="1864.5" y2="381" gradientUnits="userSpaceOnUse">
<stop stop-color="#E73F80"/>
<stop offset="1" stop-color="#B051E2"/>
</linearGradient>
</defs>
</svg>
