<svg xmlns="http://www.w3.org/2000/svg" xmlns:xlink="http://www.w3.org/1999/xlink" style="width: 0; height: 0; visibility: hidden; position: absolute;" aria-hidden="true">

<symbol  id='close'>
    <svg xmlns="http://www.w3.org/2000/svg" width="288" height="288" viewbox="0 0 24 24"><path fill="#385469" d="m13.4 12 6.3-6.3c.4-.4.4-1 0-1.4-.4-.4-1-.4-1.4 0L12 10.6 5.7 4.3c-.4-.4-1-.4-1.4 0-.4.4-.4 1 0 1.4l6.3 6.3-6.3 6.3c-.2.2-.3.4-.3.7 0 .6.4 1 1 1 .3 0 .5-.1.7-.3l6.3-6.3 6.3 6.3c.2.2.4.3.7.3s.5-.1.7-.3c.4-.4.4-1 0-1.4L13.4 12z" class="color000 svgShape"/></svg>
  </symbol><symbol  viewBox='0 0 24 24' id='envelope'>
    <g fill="#fff"><path d="m23.954 5.542-8.418 8.418a5.007 5.007 0 0 1-7.072 0L.046 5.542C.032 5.7 0 5.843 0 6v12a5.006 5.006 0 0 0 5 5h14a5.006 5.006 0 0 0 5-5V6c0-.157-.032-.3-.046-.458Z" data-original="#000000"></path><path d="m14.122 12.546 9.134-9.135A4.986 4.986 0 0 0 19 1H5A4.986 4.986 0 0 0 .744 3.411l9.134 9.135a3.007 3.007 0 0 0 4.244 0Z" data-original="#000000"></path></g>
  </symbol><symbol  viewBox='0 0 320 512' id='facebook'>
    <!--! Font Awesome Pro 6.2.0 by @fontawesome - https://fontawesome.com License - https://fontawesome.com/license (Commercial License) Copyright 2022 Fonticons, Inc.--><path d="m279.14 288 14.22-92.66h-88.91v-60.13c0-25.35 12.42-50.06 52.24-50.06h40.42V6.26S260.43 0 225.36 0c-73.22 0-121.08 44.38-121.08 124.72v70.62H22.89V288h81.39v224h100.17V288z"></path>
  </symbol><symbol  id='food'>
    <svg xmlns="http://www.w3.org/2000/svg" width="288" height="288" viewbox="0 0 100 100"><path fill="#385469" d="M86.5 29H41.7l-4.6-10h.9c1.1 0 2-.9 2-2V7c0-1.1-.9-2-2-2H14c-1.1 0-2 .9-2 2v10c0 1.1.9 2 2 2h.9L5.2 40.2c0 .1 0 .1-.1.2V87c0 1.1.9 2 2 2h34.2c1.9 3.6 5.7 6 10 6h2.1c1.6 0 3.2-.3 4.7-1 1.5.6 3 1 4.7 1h2.1c4.4 0 8.2-2.4 10-6h11.8c1.1 0 2-.9 2-2V45.8c3.7-.9 6.5-4.3 6.5-8.3-.2-4.7-4-8.5-8.7-8.5zM16 9h20v6H16V9zm27 59.6c-1.9 2-3 4.6-3 7.4v9H9V52.3l5-2.4.2-.1c2.3-1.1 4.8-1.5 7.3-1.1 1.3.2 2.5.5 3.7 1.1 4.6 2.2 9.8 2.2 14.4 0l3.5-1.7v20.5zm0-24.9-5 2.4-.2.1c-2.3 1.1-4.8 1.5-7.3 1.1-1.3-.2-2.5-.5-3.7-1.1-4.6-2.2-9.8-2.2-14.4 0L9 47.8v-6.4l.2-.4 10.1-22h13.4l10.1 22 .2.4v2.3zM72 84c0 3.9-3.3 7-7.3 7h-2.1c-1.3 0-2.6-.3-3.7-1-.3-.2-.6-.2-1-.2s-.7.1-1 .2c-1.1.6-2.4 1-3.7 1h-2.1c-4 0-7.3-3.1-7.3-7v-8c0-3.9 3.3-7 7.3-7h2.1c.9 0 1.8.2 2.7.5V72c0 1.1.9 2 2 2s2-.9 2-2v-2.5c.8-.3 1.7-.5 2.7-.5h2.1c4 0 7.3 3.1 7.3 7v8zm14.5-42c-1.1 0-2 .9-2 2v41H76v-9c0-6.1-5.1-11-11.3-11h-2.1c-.9 0-1.8.1-2.7.3V63c0-2.2 1.8-4 4-4 1.1 0 2-.9 2-2s-.9-2-2-2c-4.4 0-8 3.6-8 8v2.3c-.9-.2-1.8-.3-2.7-.3h-2.1c-1.5 0-3 .3-4.3.8V40.4c0-.1 0-.1-.1-.2L43.5 33h43c2.5 0 4.5 2 4.5 4.5S89 42 86.5 42zM26 57c-5 0-9 4-9 9s4 9 9 9 9-4 9-9-4-9-9-9zm0 14c-2.8 0-5-2.2-5-5s2.2-5 5-5 5 2.2 5 5-2.2 5-5 5z" class="color000 svgShape"/></svg>
  </symbol><symbol  viewBox='0 0 24 24' id='geo'>
    <path d="M12 .042a9.992 9.992 0 0 0-9.981 9.98c0 2.57 1.99 6.592 5.915 11.954a5.034 5.034 0 0 0 8.132 0c3.925-5.362 5.915-9.384 5.915-11.954A9.992 9.992 0 0 0 12 .042ZM12 14a4 4 0 1 1 4-4 4 4 0 0 1-4 4Z" fill="#fff" data-original="#000000"></path>
  </symbol><symbol  viewBox='0 0 24 24' id='instagram'>
    <g fill="#fff"><path d="M12 2.162c3.204 0 3.584.012 4.849.07 1.308.06 2.655.358 3.608 1.311.962.962 1.251 2.296 1.311 3.608.058 1.265.07 1.645.07 4.849s-.012 3.584-.07 4.849c-.059 1.301-.364 2.661-1.311 3.608-.962.962-2.295 1.251-3.608 1.311-1.265.058-1.645.07-4.849.07s-3.584-.012-4.849-.07c-1.291-.059-2.669-.371-3.608-1.311-.957-.957-1.251-2.304-1.311-3.608-.058-1.265-.07-1.645-.07-4.849s.012-3.584.07-4.849c.059-1.296.367-2.664 1.311-3.608.96-.96 2.299-1.251 3.608-1.311 1.265-.058 1.645-.07 4.849-.07M12 0C8.741 0 8.332.014 7.052.072 5.197.157 3.355.673 2.014 2.014.668 3.36.157 5.198.072 7.052.014 8.332 0 8.741 0 12c0 3.259.014 3.668.072 4.948.085 1.853.603 3.7 1.942 5.038 1.345 1.345 3.186 1.857 5.038 1.942C8.332 23.986 8.741 24 12 24c3.259 0 3.668-.014 4.948-.072 1.854-.085 3.698-.602 5.038-1.942 1.347-1.347 1.857-3.184 1.942-5.038.058-1.28.072-1.689.072-4.948 0-3.259-.014-3.668-.072-4.948-.085-1.855-.602-3.698-1.942-5.038C20.643.671 18.797.156 16.948.072 15.668.014 15.259 0 12 0z" data-original="#000000"></path><path d="M12 5.838a6.162 6.162 0 1 0 0 12.324 6.162 6.162 0 0 0 0-12.324zM12 16a4 4 0 1 1 0-8 4 4 0 0 1 0 8z" data-original="#000000"></path><circle cx="18.406" cy="5.594" r="1.44" data-original="#000000"></circle></g>
  </symbol><symbol  id='learning'>
    <svg xmlns="http://www.w3.org/2000/svg" width="288" height="288" viewbox="0 0 512 512"><path fill="#385469" d="M416 7.64H96A40.41 40.41 0 0 0 55.64 48v194A40.4 40.4 0 0 0 96 282.33h132a.21.21 0 0 1 .17.1l15.79 25a14.2 14.2 0 0 0 24 0l15.79-25a.19.19 0 0 1 .17-.1h132.87a39.61 39.61 0 0 0 39.57-39.56V48A40.41 40.41 0 0 0 416 7.64Zm26.36 235.13a25.6 25.6 0 0 1-25.57 25.56H284a14.14 14.14 0 0 0-12 6.67l-15.78 25a.23.23 0 0 1-.36 0L240 275a14.14 14.14 0 0 0-12-6.63H96A26.38 26.38 0 0 1 69.64 242V48A26.39 26.39 0 0 1 96 21.64h320A26.39 26.39 0 0 1 442.36 48Z" class="color000 svgShape"/><path fill="#385469" d="M404.55 326.53H386.6v-2.61a7 7 0 0 0-4.74-6.63A154.55 154.55 0 0 0 334 310.4c-32.05.47-58.42 11.78-76.81 32.82-18.4-21-44.77-32.35-76.82-32.82a155.28 155.28 0 0 0-47.89 6.89 7 7 0 0 0-4.73 6.63v2.61h-18.38a7 7 0 0 0-7 7v161.94l.06.37c0 .18.06.35.1.52l.09.36c.08.25.16.48.25.71a.56.56 0 0 1 0 .12l.13.24c.08.16.16.32.25.48s.13.2.19.3a6.21 6.21 0 0 0 .47.64l.18.2c.15.16.3.32.46.47l.19.17a6.12 6.12 0 0 0 .7.53l.1.06a6.16 6.16 0 0 0 .71.4l.15.07a6.49 6.49 0 0 0 .87.33 7.86 7.86 0 0 0 .84.19h.22a7 7 0 0 0 .92.07h295.3a7.14 7.14 0 0 0 .93-.07h.22a7.13 7.13 0 0 0 .8-.18h.08a8.71 8.71 0 0 0 .85-.32l.18-.09a5.32 5.32 0 0 0 .66-.37l.14-.08c.24-.16.47-.34.69-.52l.17-.16a6.14 6.14 0 0 0 .51-.51l.12-.14a6.05 6.05 0 0 0 .53-.72l.09-.14a7.44 7.44 0 0 0 .42-.79 7 7 0 0 0 .32-.91.65.65 0 0 0 0-.13 6.91 6.91 0 0 0 .16-.79v-.17a7.37 7.37 0 0 0 .05-.82V333.53a7 7 0 0 0-6.92-7Zm-288.18 14h11.36v123.94l-11.36 12.33Zm9 147.21 13-14.06q2.78-.48 5.47-.85a157.45 157.45 0 0 1 53.88 1.38 136.26 136.26 0 0 1 24.56 7.48 124.06 124.06 0 0 1 12.62 6.05Zm124.83-7.17c-3-2-6.63-4.17-10.78-6.36a146.57 146.57 0 0 0-39.75-14 163.24 163.24 0 0 0-32-3.11 183.35 183.35 0 0 0-25.94 1.9V329.17c1-.27 2.21-.57 3.53-.88a146.43 146.43 0 0 1 35.29-3.88c23.45.42 42.77 7 57.68 19.71a79.66 79.66 0 0 1 11.93 12.63Zm14 0V356.75a79.55 79.55 0 0 1 12-12.65c14.91-12.67 34.22-19.27 57.66-19.69a147 147 0 0 1 35.13 3.84c1.38.33 2.62.64 3.69.92V459a171.37 171.37 0 0 0-57.91 1.24 146.44 146.44 0 0 0-39.75 14c-4.24 2.16-7.83 4.33-10.86 6.33Zm15.34 7.17a126.22 126.22 0 0 1 12.62-6.05 134.67 134.67 0 0 1 24.48-7.48 160.23 160.23 0 0 1 55.83-1.1c1.23.18 2.43.37 3.6.58l12.73 14.05Zm118.05-11.15-10.99-12.08v-124h10.95Z" class="color000 svgShape"/><path fill="#385469" d="M344.17 435.23a7 7 0 0 0 2.87-13.7c-39.51-8.27-62.32 12.1-63.27 13a7 7 0 1 0 9.46 10.32c.18-.19 18.38-16.44 50.94-9.62zm-56.59-19.93a7 7 0 0 0 4.73-1.84c.18-.17 18.38-16.42 50.94-9.6a7 7 0 1 0 2.87-13.71c-39.51-8.26-62.31 12.11-63.27 13a7 7 0 0 0 4.73 12.17zm-122.07 6.23a7 7 0 1 0 2.87 13.7c32.09-6.72 50.12 8.88 51 9.62a7 7 0 0 0 9.43-10.34c-.99-.88-23.81-21.26-63.3-12.98zm.91-31.38a7 7 0 1 0 2.87 13.71c32.1-6.72 50.13 8.87 51 9.62a7 7 0 0 0 9.43-10.35c-.98-.87-23.79-21.25-63.3-12.98zM260 35.29c-1.76 0-3.53 0-5.21.11a105.95 105.95 0 0 0-37.37 203l.58.72.36-.3a105.77 105.77 0 0 0 41.07 8.44h.29a105.11 105.11 0 0 0 75.91-32 106.72 106.72 0 0 0 10.83-13 105.42 105.42 0 0 0 19.25-60.64A106 106 0 0 0 260 35.29zm-80.41 151.29A92 92 0 0 1 167.68 141a94.3 94.3 0 0 1 .7-11c4.13 9.24 7 17.47 6.5 20.89l-.26 2 1 1.75a52.66 52.66 0 0 0 28.18 21.8c.31 3.22-.81 11-2.65 17.7l-.73 2.69 1.58 2.3c.77 1.11 7.37 10.46 15.65 15.46.64 1.44 1.27 4.26-.82 8.07a92.22 92.22 0 0 1-37.24-36.08zM335 194.15a91.83 91.83 0 0 1-107.19 33.38c4.56-9.12 1.94-17.18-1-21l-.82-1.07-1.19-.61c-4.25-2.21-8.73-7.16-11.28-10.39 4.28-17.13 2.77-26.86-4.49-28.95A42 42 0 0 1 186.89 150c-.27-10.53-8.86-28.42-14.22-38.6.33-1 .67-1.94 1-2.9a91.47 91.47 0 0 1 20.41-31.72 92.62 92.62 0 0 1 34.51-22.09 91.55 91.55 0 0 1 26.79-5.27c1.38-.07 2.8-.1 4.24-.1h.27a91.17 91.17 0 0 1 13.56 1.05c-1.93 4.46-3.72 9.28-4.18 12.63-.67.67-1.92 1.7-2.81 2.44-4.19 3.46-9.41 7.77-9.25 14 .07 2.41 1 5.95 5.31 9.1 7.83 5.79 19.38 11.27 35.28 16.75 4.12 1.42 12.55 4.33 14.39 6.33.64 3 2.56 6.13 4.77 9.73a51.57 51.57 0 0 1 3.26 5.84c-.15.43-.37 1-.55 1.44-1.56 4-5.72 14.54 4.58 19.87 5.32 2.67 13.75 6.8 17.75 8.5a118.22 118.22 0 0 1 5.62 11.23A91.64 91.64 0 0 1 335 194.15zm16.35-44.81c-1.73-2.37-2.81-2.74-3.87-3.11-1.51-.52-10-4.52-17.65-8.46a1.91 1.91 0 0 1-.29-.18c-.07-1 .89-3.43 1.37-4.64a24.54 24.54 0 0 0 1.35-4.13c.83-4.3-1.87-8.71-5-13.81a41.06 41.06 0 0 1-3.24-5.9c-1.3-8-11.46-11.52-22.23-15.23-14.53-5-25.32-10.08-32.06-15.06a38.65 38.65 0 0 1 4.49-4.13c3.63-3 7.05-5.82 7.05-10.1.11-1.48 1.92-6.32 4.26-11.58a91.93 91.93 0 0 1 66.23 88.55q-.1 3.9-.45 7.78z" class="color000 svgShape"/><path fill="#385469" d="M276.19 104a30.78 30.78 0 0 0-18.52 6.16 30.88 30.88 0 0 0-49.39 24.72v4.67a32.59 32.59 0 0 0 12.5 25.76l27.62 21.77a14.93 14.93 0 0 0 18.55 0l27.63-21.77a32.61 32.61 0 0 0 12.49-25.76v-4.67A30.92 30.92 0 0 0 276.19 104Zm16.88 35.55a18.68 18.68 0 0 1-7.16 14.76l-27.63 21.78a1 1 0 0 1-1.21 0l-27.63-21.78a18.68 18.68 0 0 1-7.16-14.76v-4.67a16.88 16.88 0 0 1 30-10.66 7 7 0 0 0 10.85 0 16.88 16.88 0 0 1 30 10.66Z" class="color000 svgShape"/></svg>
  </symbol><symbol  viewBox='0 0 490.667 490.667' id='menu-burger'>
    <path d="M469.333 224h-448C9.551 224 0 233.551 0 245.333c0 11.782 9.551 21.333 21.333 21.333h448c11.782 0 21.333-9.551 21.333-21.333.001-11.782-9.551-21.333-21.333-21.333zm-448-106.667h448c11.782 0 21.333-9.551 21.333-21.333s-9.551-21.333-21.333-21.333h-448C9.551 74.667 0 84.218 0 96s9.551 21.333 21.333 21.333zm448 256h-448C9.551 373.333 0 382.885 0 394.667S9.551 416 21.333 416h448c11.782 0 21.333-9.551 21.333-21.333.001-11.782-9.551-21.334-21.333-21.334z"></path>
  </symbol><symbol  viewBox='0 0 24 24' id='phone-call'>
    <path d="M23 11a1 1 0 0 1-1-1 8.008 8.008 0 0 0-8-8 1 1 0 0 1 0-2 10.011 10.011 0 0 1 10 10 1 1 0 0 1-1 1Zm-3-1a6 6 0 0 0-6-6 1 1 0 1 0 0 2 4 4 0 0 1 4 4 1 1 0 0 0 2 0Zm2.183 12.164.91-1.049a3.1 3.1 0 0 0 0-4.377c-.031-.031-2.437-1.882-2.437-1.882a3.1 3.1 0 0 0-4.281.006l-1.906 1.606a12.784 12.784 0 0 1-6.932-6.944l1.6-1.9a3.1 3.1 0 0 0 .007-4.282S7.291.939 7.26.908A3.082 3.082 0 0 0 2.934.862l-1.15 1C-5.01 9.744 9.62 24.261 17.762 24a6.155 6.155 0 0 0 4.421-1.836Z" fill="#fff" data-original="#000000"></path>
  </symbol><symbol  id='play'>
    <svg xmlns="http://www.w3.org/2000/svg" width="288" height="288" viewbox="0 0 512 512"><path fill="#385469" d="M477.6 256c-.1 45.9-14.3 90.7-40.8 128.2-25.6 36.3-62.7 64.7-104.5 79.9-43.7 15.9-92 17.8-136.8 5.1-43.3-12.2-82.1-37.9-110.8-72.5C56 362.1 38.4 318.3 35 273.5c-3.5-46.1 7.3-92.4 31.2-132 23.2-38.4 57.9-69 98.6-87.6 41.9-19.1 90.1-24.4 135.2-15.2 44.1 9 84.7 31.4 115.9 63.8 31.4 32.7 52.1 74.7 59.2 119.5 1.8 11.3 2.5 22.6 2.5 34 0 9.7 15 9.7 15 0-.1-48.8-15.2-97.1-43.6-136.9-27.9-39-67-69-112-85.5-46.3-17-98-18.8-145.4-5.4-45.9 13-87.6 40.1-117.9 76.9-31 37.7-49.8 84-53.7 132.7-3.8 48.7 7.9 98.4 33.2 140.2 24.5 40.6 61.4 73.7 104.6 93.3 45.4 20.6 96.6 26.4 145.5 16.5 46.9-9.4 90.6-33.7 123.6-68.3 33-34.6 55.4-79 62.7-126.3 1.9-12.3 2.9-24.8 3-37.3.1-9.6-14.9-9.6-15 .1z" class="color000 svgShape"/><path fill="#385469" d="M429.7 403.3c-33.3-20.9-50.5-60-56.4-97.6-7.1-45 1.4-93.5 23.2-133.5 10.8-19.8 25.1-38 43.3-51.5 3.3-2.4 4.9-6.5 2.7-10.3-1.8-3.2-7-5.1-10.3-2.7-37.5 27.8-60.9 71.3-70.7 116.3-10.2 47-7 98.5 15.4 141.6 10.5 20.3 25.7 38.3 45.2 50.5 8.2 5.2 15.8-7.7 7.6-12.8zM118.9 81.1c30.2-4.8 58.7 8.2 78.6 30.6 20 22.6 30.8 52.8 34.7 82.4 8.5 63.9-12.8 139.8-65.7 180.1-25.7 19.6-58 27.5-88.9 15.8-9-3.4-12.9 11.1-4 14.5 30.5 11.6 64.1 6.1 91.4-11 28.8-18.1 50.2-46.6 63.8-77.4 28.7-64.9 29.7-150.7-15.6-208.7-23.8-30.4-59.7-46.8-98.3-40.7-4 .6-6.2 5.6-5.2 9.2 1.1 4.3 5.1 5.9 9.2 5.2zm177.7 399.6c-15.4-113.4-6.9-229.2 28.3-338.2 9.9-30.7 21.9-60.7 35.6-89.9 4.1-8.7-8.8-16.3-13-7.6-49.9 106.2-75.3 222.1-73.3 339.5.6 33.5 3.4 66.9 7.9 100.1.5 4 5.7 6.2 9.2 5.2 4.4-1.1 5.9-5 5.3-9.1z" class="color000 svgShape"/><path fill="#385469" d="M483.1 301.2c-111-50.6-235.1-69.2-356.4-65.6-17.4.5-34.8 1.5-52.2 3-16.4 1.4-33.5 2.3-49.6 5.6-9.5 1.9-5.5 16.4 4 14.5 14.2-2.8 29.3-3.6 43.7-4.8 14.8-1.3 29.6-2.2 44.4-2.8 29.9-1.2 59.9-1 89.7.7 59.7 3.3 119.2 12.6 176.7 29 31.4 8.9 62.3 20 92 33.6 3.7 1.7 8 1 10.3-2.7 2-3.4 1.1-8.8-2.6-10.5z" class="color000 svgShape"/></svg>
  </symbol><symbol  viewBox='0 0 200 200' id='point'>
    <circle cx="100" cy="100" r="80" fill="$main"></circle>
  </symbol><symbol  id='prices_mask'>
    \<path class="st0" d="M0 0v31.1l2.8-1.8s3.5 7.9 11.6 8.1c9.3.2 13.2-6.5 13.2-6.5s4.1 8.3 11.7 7.2c8-1.2 9.4-8.8 9.4-8.8s2 3.3 5.6 3.3 5.6-3.3 5.6-3.3V0H0z"></path>\
  </symbol><symbol  id='rooms'>
    <svg xmlns="http://www.w3.org/2000/svg" width="288" height="288" viewbox="0 0 48 48"><path fill="#385469" d="M13 15c.26 0 .51-.1.71-.29l3-3a.996.996 0 1 0-1.41-1.41l-3 3A.996.996 0 0 0 13 15zm1.29 2.71c.2.19.45.29.71.29s.51-.1.71-.29l5-5a.996.996 0 1 0-1.41-1.41l-5 5c-.4.38-.4 1.02-.01 1.41z" class="color000 svgShape"/><path fill="#385469" d="M40 3H8c-.55 0-1 .45-1 1v40c0 .55.45 1 1 1h32c.55 0 1-.45 1-1V4c0-.55-.45-1-1-1zM23 43H9V25h14v18zm0-20H9V5h14v18zm16 20H25V25h14v18zm0-20H25V5h14v18z" class="color000 svgShape"/><path fill="#385469" d="M29 15c.26 0 .51-.1.71-.29l3-3a.996.996 0 1 0-1.41-1.41l-3 3A.996.996 0 0 0 29 15zm1.29 2.71c.2.19.45.29.71.29s.51-.1.71-.29l5-5a.996.996 0 1 0-1.41-1.41l-5 5c-.4.38-.4 1.02-.01 1.41zM13 35c.26 0 .51-.1.71-.29l3-3a.996.996 0 1 0-1.41-1.41l-3 3A.996.996 0 0 0 13 35zm1.29 2.71c.2.19.45.29.71.29s.51-.1.71-.29l5-5a.996.996 0 1 0-1.41-1.41l-5 5c-.4.38-.4 1.02-.01 1.41zM29 35c.26 0 .51-.1.71-.29l3-3a.996.996 0 1 0-1.41-1.41l-3 3A.996.996 0 0 0 29 35zm1.29 2.71c.2.19.45.29.71.29s.51-.1.71-.29l5-5a.996.996 0 1 0-1.41-1.41l-5 5c-.4.38-.4 1.02-.01 1.41z" class="color000 svgShape"/></svg>
  </symbol><symbol  id='safe'>
    <svg xmlns="http://www.w3.org/2000/svg" width="288" height="288" viewbox="0 0 64 64"><path fill="#385469" d="m61.51 19.14-29-17a.984.984 0 0 0-1.02 0l-29 17A1.012 1.012 0 0 0 2 20v4a1 1 0 0 0 1 1h3v36a1 1 0 0 0 1 1h50a1 1 0 0 0 1-1V25h3a1 1 0 0 0 1-1v-4a1.012 1.012 0 0 0-.49-.86ZM60 23h-3a1 1 0 0 0-1 1v36H8V24a1 1 0 0 0-1-1H4v-2.43L32 4.16l28 16.41Z" class="color000 svgShape"/><path fill="#385469" d="M43 31h-1v-5a10 10 0 0 0-20 0v5h-1a1 1 0 0 0-1 1v20a3.009 3.009 0 0 0 3 3h18a3.009 3.009 0 0 0 3-3V32a1 1 0 0 0-1-1Zm-19-5a8 8 0 0 1 16 0v5h-1v-5a7 7 0 0 0-14 0v5h-1Zm13 0v5H27v-5a5 5 0 0 1 10 0Zm5 26a1 1 0 0 1-1 1H23a1 1 0 0 1-1-1V33h20Z" class="color000 svgShape"/><path fill="#385469" d="M32 37a2.993 2.993 0 0 0-1 5.816V50h2v-7.184A2.993 2.993 0 0 0 32 37Zm0 4a1 1 0 1 1 1-1 1 1 0 0 1-1 1Z" class="color000 svgShape"/></svg>
  </symbol><symbol  viewBox='0 0 24 24' id='search'>
    <path d="m24 22.586-6.262-6.262a10.016 10.016 0 1 0-1.414 1.414L22.586 24ZM10 18a8 8 0 1 1 8-8 8.009 8.009 0 0 1-8 8Z" data-name="01 align center"></path>
  </symbol><symbol  viewBox='0 0 24 24' id='shopping-cart'>
    <path d="M22.713 4.077A2.993 2.993 0 0 0 20.41 3H4.242L4.2 2.649A3 3 0 0 0 1.222 0H1a1 1 0 0 0 0 2h.222a1 1 0 0 1 .993.883l1.376 11.7A5 5 0 0 0 8.557 19H19a1 1 0 0 0 0-2H8.557a3 3 0 0 1-2.82-2h11.92a5 5 0 0 0 4.921-4.113l.785-4.354a2.994 2.994 0 0 0-.65-2.456ZM21.4 6.178l-.786 4.354A3 3 0 0 1 17.657 13H5.419l-.941-8H20.41a1 1 0 0 1 .99 1.178Z"></path><circle cx="7" cy="22" r="2"></circle><circle cx="17" cy="22" r="2"></circle>
  </symbol><symbol  id='sprite'>
    null
  </symbol><symbol  id='title_mask'>
    \<path d="M48.128 16.116c-13.114 9.638-24.112 23.126-32.025 39.276-7.913 16.15-12.498 34.465-13.35 53.33C-3.875 246.373.818 384.768 23.92 512.588c5.306 28.682 19.27 53.758 39.026 70.079 19.757 16.321 43.805 22.647 67.207 17.681 175.023-36.218 373.2-41.387 558.55-9.217 12.86 2.284 25.964 1.199 38.465-3.183 12.501-4.381 24.122-11.963 34.113-22.255 9.991-10.293 18.129-23.067 23.89-37.499 5.761-14.432 9.016-30.2 9.555-46.288 0-1.079 0-2.233.087-3.356 1.167-33.222 1.239-54.112 1.167-76.158-.269-82.321-5.201-164.516-14.759-245.981-3.464-29.633-16.1-56.43-35.23-74.717-19.13-18.287-43.253-26.626-67.259-23.252-226.519 32.689-388.185 44.927-543.302-47.29C121.665 3.044 106.503-.745 91.279.121 76.054.987 61.235 6.48 48.128 16.116Z"></path>\
  </symbol><symbol  id='toys'>
    <svg xmlns="http://www.w3.org/2000/svg" width="288" height="288" viewbox="0 0 64 64"><path fill="none" stroke="#385469" stroke-linecap="round" stroke-linejoin="round" stroke-miterlimit="10" stroke-width="2" class="colorStroke231f20 svgStroke" d="M47.09 61.09h0m-3.75 0H8.26c-1.76 0-3.18-1.42-3.18-3.18v-3.12c0-1.76 1.42-3.18 3.18-3.18h47.47c1.76 0 3.18 1.42 3.18 3.18v3.12c0 1.76-1.42 3.18-3.18 3.18h-4.15m.52-9.48H11.9c-1.76 0-3.18-1.42-3.18-3.18v-3.12c0-1.76 1.42-3.18 3.18-3.18h40.2c1.76 0 3.18 1.42 3.18 3.18v3.12c0 1.75-1.42 3.18-3.18 3.18zm-3.7-9.49H15.6c-1.76 0-3.18-1.42-3.18-3.18v-3.12c0-1.76 1.42-3.18 3.18-3.18h32.8c1.76 0 3.18 1.42 3.18 3.18v3.12a3.169 3.169 0 0 1-3.18 3.18zm-3.21-9.48H18.81c-1.76 0-3.18-1.42-3.18-3.18v-3.12c0-1.76 1.42-3.18 3.18-3.18h26.38c1.76 0 3.18 1.42 3.18 3.18v3.12c0 1.76-1.42 3.18-3.18 3.18zm-3.46-9.48H22.27c-1.76 0-3.18-1.42-3.18-3.18v-3.12c0-1.76 1.42-3.18 3.18-3.18h19.47c1.76 0 3.18 1.42 3.18 3.18v3.12c0 1.76-1.43 3.18-3.19 3.18zm-6.68-17.2a3.05 3.05 0 1 1-6.1 0 3.05 3.05 0 1 1 6.1 0zM32 9.02v4.66"/><path fill="none" stroke="#385469" stroke-linecap="round" stroke-linejoin="round" stroke-miterlimit="10" stroke-width="1.5" d="M23.62 16.3h-.75a.96.96 0 0 0-.96.96v1.15m-1.97 7.38h-.75a.96.96 0 0 0-.96.96v1.15m-.89 7.96h-.75a.96.96 0 0 0-.96.96v1.15m-2.36 7.26h-.75a.96.96 0 0 0-.96.96v1.15m-1.99 6.89h-.75a.96.96 0 0 0-.96.96v1.15" class="colorStroke231f20 svgStroke"/></svg>
  </symbol><symbol  viewBox='0 0 24 24' id='twitter'>
    <path d="M21.543 7.104c.014.211.014.423.014.636 0 6.507-4.954 14.01-14.01 14.01v-.004A13.936 13.936 0 0 1 0 19.539a9.881 9.881 0 0 0 7.287-2.041 4.93 4.93 0 0 1-4.6-3.42 4.926 4.926 0 0 0 2.223-.084A4.924 4.924 0 0 1 .96 9.167v-.062a4.88 4.88 0 0 0 2.235.616A4.927 4.927 0 0 1 1.67 3.148a13.982 13.982 0 0 0 10.148 5.145 4.929 4.929 0 0 1 8.391-4.491 9.873 9.873 0 0 0 3.127-1.195 4.947 4.947 0 0 1-2.165 2.724A9.89 9.89 0 0 0 24 4.555a10.008 10.008 0 0 1-2.457 2.549z" fill="#fff" data-original="#000000"></path>
  </symbol><symbol  viewBox='0 0 24 24' id='user'>
    <path d="M12 12a6 6 0 1 0-6-6 6.006 6.006 0 0 0 6 6Zm0-10a4 4 0 1 1-4 4 4 4 0 0 1 4-4Zm0 12a9.01 9.01 0 0 0-9 9 1 1 0 0 0 2 0 7 7 0 0 1 14 0 1 1 0 0 0 2 0 9.01 9.01 0 0 0-9-9Z"></path>
  </symbol><symbol  viewBox='0 0 2400 800' id='waves-program'>
    <path d="M-.3 373.674c40.545 8.75 115.609 49.708 194.615 42 79.007-7.709 107.693-73.792 184.616-79 76.923-5.209 107.692 49.833 184.615 54 76.923 4.166 107.692-36.5 184.615-34 76.923 2.5 107.693 49.958 184.616 46 76.923-3.959 107.692-66.25 184.615-65 76.923 1.25 107.692 65.375 184.616 71 76.923 5.625 107.692-45.667 184.615-44 76.923 1.666 107.692 50.541 184.615 52 76.923 1.458 107.693-48.75 184.616-45 76.923 3.75 107.692 65.5 184.615 63 76.923-2.5 107.692-74.167 184.615-75 76.924-.834 94.071-13.167 184.616 71 90.545 84.166 854.166 159.458 250 333-604.167 173.541-2493.75 395.833-3150 500" opacity="NaN" fill="hsl(189,28%,95%)"></path>
  </symbol><symbol  viewBox='0 0 6480 68' id='waves' preserveAspectRatio='none'>
    <path class="elementor-shape-fill" d="M3599.8 0h-1920v68s70.8-38 120-38 70.8 38 120 38 70.8-38 120-38 70.8 38 120 38 70.8-38 120-38 70.8 38 120 38 70.8-38 120-38 70.8 38 120 38 70.8-38 120-38 70.8 38 120 38 70.8-38 120-38 70.8 38 120 38 70.8-38 120-38 70.8 38 120 38 70.8-38 120-38 120 38 120 38V0z" fill="#fff"></path><path class="elementor-shape-fill" d="M3599.8 0h-1920v68s70.8-38 120-38 70.8 38 120 38 70.8-38 120-38 70.8 38 120 38 70.8-38 120-38 70.8 38 120 38 70.8-38 120-38 70.8 38 120 38 70.8-38 120-38 70.8 38 120 38 70.8-38 120-38 70.8 38 120 38 70.8-38 120-38 70.8 38 120 38 70.8-38 120-38 120 38 120 38V0z" fill="#fff"></path><path class="elementor-shape-fill" d="M5280.3 0h-1920v68s70.8-38 120-38 70.8 38 120 38 70.8-38 120-38 70.8 38 120 38 70.8-38 120-38 70.8 38 120 38 70.8-38 120-38 70.8 38 120 38 70.8-38 120-38 70.8 38 120 38 70.8-38 120-38 70.8 38 120 38 70.8-38 120-38 70.8 38 120 38 70.8-38 120-38 120 38 120 38V0z" fill="#fff"></path><path class="elementor-shape-fill" d="M6480.3-.4h-1920v68s70.8-38 120-38 70.8 38 120 38 70.8-38 120-38 70.8 38 120 38 70.8-38 120-38 70.8 38 120 38 70.8-38 120-38 70.8 38 120 38 70.8-38 120-38 70.8 38 120 38 70.8-38 120-38 70.8 38 120 38 70.8-38 120-38 70.8 38 120 38 70.8-38 120-38 120 38 120 38v-68zM1920 0H0v68s70.8-38 120-38 70.8 38 120 38 70.8-38 120-38 70.8 38 120 38 70.8-38 120-38 70.8 38 120 38 70.8-38 120-38 70.8 38 120 38 70.8-38 120-38 70.8 38 120 38 70.8-38 120-38 70.8 38 120 38 70.8-38 120-38 70.8 38 120 38 70.8-38 120-38 120 38 120 38V0z" fill="#fff"></path>
  </symbol></svg>