<svg xmlns="http://www.w3.org/2000/svg" xmlns:svgjs="http://svgjs.com/svgjs" xmlns:xlink="http://www.w3.org/1999/xlink" width="288" height="288"><svg xmlns="http://www.w3.org/2000/svg" width="288" height="288" enable-background="new 0 0 64 64" viewBox="0 0 64 64"><line x1="47.09" x2="47.09" y1="61.09" y2="61.09" fill="none" stroke="#385469" stroke-linecap="round" stroke-linejoin="round" stroke-miterlimit="10" stroke-width="2" class="colorStroke231f20 svgStroke"/><path fill="none" stroke="#385469" stroke-linecap="round" stroke-linejoin="round" stroke-miterlimit="10" stroke-width="2" d="M43.34 61.09H8.26c-1.76 0-3.18-1.42-3.18-3.18v-3.12c0-1.76 1.42-3.18 3.18-3.18h47.47c1.76 0 3.18 1.42 3.18 3.18v3.12c0 1.76-1.42 3.18-3.18 3.18h-4.15M52.1 51.61H11.9c-1.76 0-3.18-1.42-3.18-3.18v-3.12c0-1.76 1.42-3.18 3.18-3.18h40.2c1.76 0 3.18 1.42 3.18 3.18v3.12C55.28 50.18 53.86 51.61 52.1 51.61zM48.4 42.12H15.6c-1.76 0-3.18-1.42-3.18-3.18v-3.12c0-1.76 1.42-3.18 3.18-3.18H48.4c1.76 0 3.18 1.42 3.18 3.18v3.12C51.59 40.7 50.16 42.12 48.4 42.12zM45.19 32.64H18.81c-1.76 0-3.18-1.42-3.18-3.18v-3.12c0-1.76 1.42-3.18 3.18-3.18h26.38c1.76 0 3.18 1.42 3.18 3.18v3.12C48.37 31.22 46.95 32.64 45.19 32.64zM41.73 23.16H22.27c-1.76 0-3.18-1.42-3.18-3.18v-3.12c0-1.76 1.42-3.18 3.18-3.18h19.47c1.76 0 3.18 1.42 3.18 3.18v3.12C44.92 21.74 43.49 23.16 41.73 23.16zM35.05 5.96c0 1.69-1.37 3.05-3.05 3.05-1.69 0-3.05-1.37-3.05-3.05 0-1.69 1.37-3.05 3.05-3.05C33.69 2.91 35.05 4.28 35.05 5.96z" class="colorStroke231f20 svgStroke"/><line x1="32" x2="32" y1="9.02" y2="13.68" fill="none" stroke="#385469" stroke-linecap="round" stroke-linejoin="round" stroke-miterlimit="10" stroke-width="2" class="colorStroke231f20 svgStroke"/><path fill="none" stroke="#385469" stroke-linecap="round" stroke-linejoin="round" stroke-miterlimit="10" stroke-width="1.5" d="M23.62 16.3h-.75c-.53 0-.96.43-.96.96v1.15M19.94 25.79h-.75c-.53 0-.96.43-.96.96v1.15M17.34 35.86h-.75c-.53 0-.96.43-.96.96v1.15M13.27 45.23h-.75c-.53 0-.96.43-.96.96v1.15M9.57 54.23H8.82c-.53 0-.96.43-.96.96v1.15" class="colorStroke231f20 svgStroke"/></svg></svg>