<svg xmlns="http://www.w3.org/2000/svg" version="1.1" xmlns:xlink="http://www.w3.org/1999/xlink" xmlns:svgjs="http://svgjs.dev/svgjs" viewBox="0 0 2400 800"><defs><linearGradient x1="50%" y1="0%" x2="50%" y2="100%" id="sssurf-grad"><stop stop-color="hsl(162, 100%, 58%)" stop-opacity="1" offset="0%"></stop><stop stop-color="hsl(270, 73%, 53%)" stop-opacity="1" offset="100%"></stop></linearGradient></defs><g fill="hsl(189,28%,95%)" transform="matrix(1,0,0,1,9.6998291015625,328.6736183166504)"><path d="M-10,10C30.544871794871796,18.75,105.60897435897436,59.708333333333336,184.6153846153846,52C263.62179487179486,44.291666666666664,292.3076923076923,-21.791666666666664,369.2307692307692,-27C446.15384615384613,-32.208333333333336,476.9230769230769,22.833333333333332,553.8461538461538,27C630.7692307692307,31.166666666666668,661.5384615384615,-9.5,738.4615384615385,-7C815.3846153846154,-4.5,846.1538461538462,42.958333333333336,923.0769230769231,39C1000,35.041666666666664,1030.7692307692307,-27.25,1107.6923076923076,-26C1184.6153846153845,-24.75,1215.3846153846155,39.375,1292.3076923076924,45C1369.2307692307693,50.625,1400,-0.6666666666666665,1476.923076923077,1C1553.8461538461538,2.6666666666666665,1584.6153846153845,51.541666666666664,1661.5384615384614,53C1738.4615384615383,54.458333333333336,1769.2307692307693,4.25,1846.1538461538462,8C1923.076923076923,11.75,1953.8461538461538,73.5,2030.7692307692307,71C2107.6923076923076,68.5,2138.461538461538,-3.166666666666667,2215.3846153846152,-4C2292.3076923076924,-4.833333333333333,2309.455128205128,-17.166666666666657,2400,67C2490.544871794872,151.16666666666666,3254.1666666666665,226.45833333333331,2650,400C2045.8333333333335,573.5416666666667,156.25,795.8333333333334,-500,900" transform="matrix(1,0,0,1,0,35)" opacity="NaN"></path></g></svg>