<svg xmlns="http://www.w3.org/2000/svg" width="288" height="288"><svg xmlns="http://www.w3.org/2000/svg" width="288" height="288" viewBox="0 0 48 48"><path fill="#385469" d="M13 15c.26 0 .51-.1.71-.29l3-3a.996.996 0 1 0-1.41-1.41l-3 3A.996.996 0 0 0 13 15zm1.29 2.71c.2.19.45.29.71.29s.51-.1.71-.29l5-5a.996.996 0 1 0-1.41-1.41l-5 5c-.4.38-.4 1.02-.01 1.41z" class="color000 svgShape"/><path fill="#385469" d="M40 3H8c-.55 0-1 .45-1 1v40c0 .55.45 1 1 1h32c.55 0 1-.45 1-1V4c0-.55-.45-1-1-1zM23 43H9V25h14v18zm0-20H9V5h14v18zm16 20H25V25h14v18zm0-20H25V5h14v18z" class="color000 svgShape"/><path fill="#385469" d="M29 15c.26 0 .51-.1.71-.29l3-3a.996.996 0 1 0-1.41-1.41l-3 3A.996.996 0 0 0 29 15zm1.29 2.71c.2.19.45.29.71.29s.51-.1.71-.29l5-5a.996.996 0 1 0-1.41-1.41l-5 5c-.4.38-.4 1.02-.01 1.41zM13 35c.26 0 .51-.1.71-.29l3-3a.996.996 0 1 0-1.41-1.41l-3 3A.996.996 0 0 0 13 35zm1.29 2.71c.2.19.45.29.71.29s.51-.1.71-.29l5-5a.996.996 0 1 0-1.41-1.41l-5 5c-.4.38-.4 1.02-.01 1.41zM29 35c.26 0 .51-.1.71-.29l3-3a.996.996 0 1 0-1.41-1.41l-3 3A.996.996 0 0 0 29 35zm1.29 2.71c.2.19.45.29.71.29s.51-.1.71-.29l5-5a.996.996 0 1 0-1.41-1.41l-5 5c-.4.38-.4 1.02-.01 1.41z" class="color000 svgShape"/></svg></svg>