<svg xmlns="http://www.w3.org/2000/svg" width="288" height="288"><svg xmlns="http://www.w3.org/2000/svg" width="288" height="288" viewBox="0 0 64 64"><path fill="#385469" d="m61.51 19.14-29-17a.984.984 0 0 0-1.02 0l-29 17A1.012 1.012 0 0 0 2 20v4a1 1 0 0 0 1 1h3v36a1 1 0 0 0 1 1h50a1 1 0 0 0 1-1V25h3a1 1 0 0 0 1-1v-4a1.012 1.012 0 0 0-.49-.86ZM60 23h-3a1 1 0 0 0-1 1v36H8V24a1 1 0 0 0-1-1H4v-2.43L32 4.16l28 16.41Z" class="color000 svgShape"/><path fill="#385469" d="M43 31h-1v-5a10 10 0 0 0-20 0v5h-1a1 1 0 0 0-1 1v20a3.009 3.009 0 0 0 3 3h18a3.009 3.009 0 0 0 3-3V32a1 1 0 0 0-1-1Zm-19-5a8 8 0 0 1 16 0v5h-1v-5a7 7 0 0 0-14 0v5h-1Zm13 0v5H27v-5a5 5 0 0 1 10 0Zm5 26a1 1 0 0 1-1 1H23a1 1 0 0 1-1-1V33h20Z" class="color000 svgShape"/><path fill="#385469" d="M32 37a2.993 2.993 0 0 0-1 5.816V50h2v-7.184A2.993 2.993 0 0 0 32 37Zm0 4a1 1 0 1 1 1-1 1 1 0 0 1-1 1Z" class="color000 svgShape"/></svg></svg>