<svg width="796" height="602" xmlns="http://www.w3.org/2000/svg">\<path d="M48.128 16.116c-13.114 9.638-24.112 23.126-32.025 39.276-7.913 16.15-12.498 34.465-13.35 53.33C-3.875 246.373.818 384.768 23.92 512.588c5.306 28.682 19.27 53.758 39.026 70.079 19.757 16.321 43.805 22.647 67.207 17.681 175.023-36.218 373.2-41.387 558.55-9.217 12.86 2.284 25.964 1.199 38.465-3.183 12.501-4.381 24.122-11.963 34.113-22.255 9.991-10.293 18.129-23.067 23.89-37.499 5.761-14.432 9.016-30.2 9.555-46.288 0-1.079 0-2.233.087-3.356 1.167-33.222 1.239-54.112 1.167-76.158-.269-82.321-5.201-164.516-14.759-245.981-3.464-29.633-16.1-56.43-35.23-74.717-19.13-18.287-43.253-26.626-67.259-23.252-226.519 32.689-388.185 44.927-543.302-47.29C121.665 3.044 106.503-.745 91.279.121 76.054.987 61.235 6.48 48.128 16.116Z"/>\</svg>