<svg xmlns="http://www.w3.org/2000/svg" viewBox="0 0 6480 68" preserveAspectRatio="none"><path class="elementor-shape-fill" d="M3599.8 0h-1920v68s70.8-38 120-38 70.8 38 120 38 70.8-38 120-38 70.8 38 120 38 70.8-38 120-38 70.8 38 120 38 70.8-38 120-38 70.8 38 120 38 70.8-38 120-38 70.8 38 120 38 70.8-38 120-38 70.8 38 120 38 70.8-38 120-38 70.8 38 120 38 70.8-38 120-38 120 38 120 38V0z" fill="#fff"/><path class="elementor-shape-fill" d="M3599.8 0h-1920v68s70.8-38 120-38 70.8 38 120 38 70.8-38 120-38 70.8 38 120 38 70.8-38 120-38 70.8 38 120 38 70.8-38 120-38 70.8 38 120 38 70.8-38 120-38 70.8 38 120 38 70.8-38 120-38 70.8 38 120 38 70.8-38 120-38 70.8 38 120 38 70.8-38 120-38 120 38 120 38V0z" fill="#fff"/><path class="elementor-shape-fill" d="M5280.3 0h-1920v68s70.8-38 120-38 70.8 38 120 38 70.8-38 120-38 70.8 38 120 38 70.8-38 120-38 70.8 38 120 38 70.8-38 120-38 70.8 38 120 38 70.8-38 120-38 70.8 38 120 38 70.8-38 120-38 70.8 38 120 38 70.8-38 120-38 70.8 38 120 38 70.8-38 120-38 120 38 120 38V0z" fill="#fff"/><path class="elementor-shape-fill" d="M6480.3-.4h-1920v68s70.8-38 120-38 70.8 38 120 38 70.8-38 120-38 70.8 38 120 38 70.8-38 120-38 70.8 38 120 38 70.8-38 120-38 70.8 38 120 38 70.8-38 120-38 70.8 38 120 38 70.8-38 120-38 70.8 38 120 38 70.8-38 120-38 70.8 38 120 38 70.8-38 120-38 120 38 120 38v-68zM1920 0H0v68s70.8-38 120-38 70.8 38 120 38 70.8-38 120-38 70.8 38 120 38 70.8-38 120-38 70.8 38 120 38 70.8-38 120-38 70.8 38 120 38 70.8-38 120-38 70.8 38 120 38 70.8-38 120-38 70.8 38 120 38 70.8-38 120-38 70.8 38 120 38 70.8-38 120-38 120 38 120 38V0z" fill="#fff"/></svg>